HIERARCHY
ROOT Hips
{
	OFFSET -14.64140 90.27770 -84.91600
	CHANNELS 6 Xposition Yposition Zposition Zrotation Xrotation Yrotation
	JOINT Spine
	{
		OFFSET 0.00000 13.20850 -1.60436
		CHANNELS 3 Zrotation Xrotation Yrotation
		JOINT Spine1
		{
			OFFSET 0.00000 8.61716 0.00000
			CHANNELS 3 Zrotation Xrotation Yrotation
			JOINT Spine2
			{
				OFFSET 0.00000 8.61717 0.00000
				CHANNELS 3 Zrotation Xrotation Yrotation
				JOINT Spine3
				{
					OFFSET 0.00000 8.61717 0.00000
					CHANNELS 3 Zrotation Xrotation Yrotation
					JOINT Neck
					{
						OFFSET 0.00000 11.07920 1.10792
						CHANNELS 3 Zrotation Xrotation Yrotation
						JOINT Neck1
						{
							OFFSET 0.00000 7.08032 0.00000
							CHANNELS 3 Zrotation Xrotation Yrotation
							JOINT Head
							{
								OFFSET 0.00000 7.08031 0.00000
								CHANNELS 3 Zrotation Xrotation Yrotation
								End site
								{
									OFFSET 0.00000 0.00000 0.00000
								}
							}
						}
					}
					JOINT RightShoulder
					{
						OFFSET -0.01000 7.91373 5.19711
						CHANNELS 3 Zrotation Xrotation Yrotation
						JOINT RightArm
						{
							OFFSET -18.41580 0.00000 0.00000
							CHANNELS 3 Zrotation Xrotation Yrotation
							JOINT RightForeArm
							{
								OFFSET -29.11090 0.00000 0.00000
								CHANNELS 3 Zrotation Xrotation Yrotation
								JOINT RightHand
								{
									OFFSET -24.65040 0.00000 0.00000
									CHANNELS 3 Zrotation Xrotation Yrotation
									JOINT RightHandThumb1
									{
										OFFSET -5.35114 -0.85590 3.97906
										CHANNELS 3 Zrotation Xrotation Yrotation
										JOINT RightHandThumb2
										{
											OFFSET -4.52789 0.00000 0.00000
											CHANNELS 3 Zrotation Xrotation Yrotation
											JOINT RightHandThumb3
											{
												OFFSET -2.46976 0.00000 0.00000
												CHANNELS 3 Zrotation Xrotation Yrotation
												End site
												{
													OFFSET 0.00000 0.00000 0.00000
												}
											}
										}
									}
									JOINT RightHandIndex1
									{
										OFFSET -14.26970 0.00000 2.88139
										CHANNELS 3 Zrotation Xrotation Yrotation
										JOINT RightHandIndex2
										{
											OFFSET -5.48836 0.00000 0.00000
											CHANNELS 3 Zrotation Xrotation Yrotation
											JOINT RightHandIndex3
											{
												OFFSET -3.01859 0.00000 0.00000
												CHANNELS 3 Zrotation Xrotation Yrotation
												End site
												{
													OFFSET 0.00000 0.00000 0.00000
												}
											}
										}
									}
									JOINT RightHandMiddle1
									{
										OFFSET -14.26970 0.00000 -0.09147
										CHANNELS 3 Zrotation Xrotation Yrotation
										JOINT RightHandMiddle2
										{
											OFFSET -6.17441 0.00000 0.00000
											CHANNELS 3 Zrotation Xrotation Yrotation
											JOINT RightHandMiddle3
											{
												OFFSET -3.56743 0.00000 0.00000
												CHANNELS 3 Zrotation Xrotation Yrotation
												End site
												{
													OFFSET 0.00000 0.00000 0.00000
												}
											}
										}
									}
									JOINT RightHandRing1
									{
										OFFSET -12.69180 0.00000 -3.06433
										CHANNELS 3 Zrotation Xrotation Yrotation
										JOINT RightHandRing2
										{
											OFFSET -5.62556 0.00000 0.00000
											CHANNELS 3 Zrotation Xrotation Yrotation
											JOINT RightHandRing3
											{
												OFFSET -3.56744 0.00000 0.00000
												CHANNELS 3 Zrotation Xrotation Yrotation
												End site
												{
													OFFSET 0.00000 0.00000 0.00000
												}
											}
										}
									}
									JOINT RightHandPinky1
									{
										OFFSET -11.11390 0.00000 -6.03719
										CHANNELS 3 Zrotation Xrotation Yrotation
										JOINT RightHandPinky2
										{
											OFFSET -4.52789 0.00000 0.00000
											CHANNELS 3 Zrotation Xrotation Yrotation
											JOINT RightHandPinky3
											{
												OFFSET -2.46976 0.00000 0.00000
												CHANNELS 3 Zrotation Xrotation Yrotation
												End site
												{
													OFFSET 0.00000 0.00000 0.00000
												}
											}
										}
									}
								}
							}
						}
					}
					JOINT LeftShoulder
					{
						OFFSET 0.01000 7.91373 5.19711
						CHANNELS 3 Zrotation Xrotation Yrotation
						JOINT LeftArm
						{
							OFFSET 18.41580 0.00000 0.00000
							CHANNELS 3 Zrotation Xrotation Yrotation
							JOINT LeftForeArm
							{
								OFFSET 29.11090 0.00000 0.00000
								CHANNELS 3 Zrotation Xrotation Yrotation
								JOINT LeftHand
								{
									OFFSET 24.65040 0.00000 0.00000
									CHANNELS 3 Zrotation Xrotation Yrotation
									JOINT LeftHandThumb1
									{
										OFFSET 5.35114 -0.85590 3.97906
										CHANNELS 3 Zrotation Xrotation Yrotation
										JOINT LeftHandThumb2
										{
											OFFSET 4.52789 0.00000 0.00000
											CHANNELS 3 Zrotation Xrotation Yrotation
											JOINT LeftHandThumb3
											{
												OFFSET 2.46977 0.00000 0.00000
												CHANNELS 3 Zrotation Xrotation Yrotation
												End site
												{
													OFFSET 0.00000 0.00000 0.00000
												}
											}
										}
									}
									JOINT LeftHandIndex1
									{
										OFFSET 14.26970 0.00000 2.88139
										CHANNELS 3 Zrotation Xrotation Yrotation
										JOINT LeftHandIndex2
										{
											OFFSET 5.48836 0.00000 0.00000
											CHANNELS 3 Zrotation Xrotation Yrotation
											JOINT LeftHandIndex3
											{
												OFFSET 3.01859 0.00000 0.00000
												CHANNELS 3 Zrotation Xrotation Yrotation
												End site
												{
													OFFSET 0.00000 0.00000 0.00000
												}
											}
										}
									}
									JOINT LeftHandMiddle1
									{
										OFFSET 14.26970 0.00000 -0.09147
										CHANNELS 3 Zrotation Xrotation Yrotation
										JOINT LeftHandMiddle2
										{
											OFFSET 6.17440 0.00000 0.00000
											CHANNELS 3 Zrotation Xrotation Yrotation
											JOINT LeftHandMiddle3
											{
												OFFSET 3.56744 0.00000 0.00000
												CHANNELS 3 Zrotation Xrotation Yrotation
												End site
												{
													OFFSET 0.00000 0.00000 0.00000
												}
											}
										}
									}
									JOINT LeftHandRing1
									{
										OFFSET 12.69180 0.00000 -3.06433
										CHANNELS 3 Zrotation Xrotation Yrotation
										JOINT LeftHandRing2
										{
											OFFSET 5.62556 0.00000 0.00000
											CHANNELS 3 Zrotation Xrotation Yrotation
											JOINT LeftHandRing3
											{
												OFFSET 3.56744 0.00000 0.00000
												CHANNELS 3 Zrotation Xrotation Yrotation
												End site
												{
													OFFSET 0.00000 0.00000 0.00000
												}
											}
										}
									}
									JOINT LeftHandPinky1
									{
										OFFSET 11.11390 0.00000 -6.03719
										CHANNELS 3 Zrotation Xrotation Yrotation
										JOINT LeftHandPinky2
										{
											OFFSET 4.52789 0.00000 0.00000
											CHANNELS 3 Zrotation Xrotation Yrotation
											JOINT LeftHandPinky3
											{
												OFFSET 2.46976 0.00000 0.00000
												CHANNELS 3 Zrotation Xrotation Yrotation
												End site
												{
													OFFSET 0.00000 0.00000 0.00000
												}
											}
										}
									}
								}
							}
						}
					}
					JOINT pCube4
					{
						OFFSET 0.00000 10.91090 1.10792
						CHANNELS 3 Zrotation Xrotation Yrotation
						End site
						{
							OFFSET 0.00000 0.00000 0.00000
						}
					}
				}
			}
		}
	}
	JOINT RightUpLeg
	{
		OFFSET -9.98441 0.00000 0.00000
		CHANNELS 3 Zrotation Xrotation Yrotation
		JOINT RightLeg
		{
			OFFSET 0.00000 -42.11790 0.00000
			CHANNELS 3 Zrotation Xrotation Yrotation
			JOINT RightFoot
			{
				OFFSET 0.00000 -45.00020 -0.00001
				CHANNELS 3 Zrotation Xrotation Yrotation
				JOINT RightForeFoot
				{
					OFFSET 0.00000 -3.74820 0.00000
					CHANNELS 3 Zrotation Xrotation Yrotation
					JOINT RightToeBase
					{
						OFFSET 0.00000 0.06325 14.43120
						CHANNELS 3 Zrotation Xrotation Yrotation
						End site
						{
							OFFSET 0.00000 0.00000 0.00000
						}
					}
				}
			}
		}
	}
	JOINT LeftUpLeg
	{
		OFFSET 9.98441 0.00000 0.00000
		CHANNELS 3 Zrotation Xrotation Yrotation
		JOINT LeftLeg
		{
			OFFSET 0.00000 -42.11800 0.00000
			CHANNELS 3 Zrotation Xrotation Yrotation
			JOINT LeftFoot
			{
				OFFSET 0.00000 -45.00070 0.00000
				CHANNELS 3 Zrotation Xrotation Yrotation
				JOINT LeftForeFoot
				{
					OFFSET 0.00000 -3.74824 0.00000
					CHANNELS 3 Zrotation Xrotation Yrotation
					JOINT LeftToeBase
					{
						OFFSET 0.00000 0.06325 14.43110
						CHANNELS 3 Zrotation Xrotation Yrotation
						End site
						{
							OFFSET 0.00000 0.00000 0.00000
						}
					}
				}
			}
		}
	}
}
MOTION
Frames: 4
Frame Time: 0.050000
-0.011891351127579969 -0.01106359978939634 -0.03998346120128162 0.0035985796778362196 0.026846093799082617 0.004292158053325473 -0.06716324845752208 3.1365914236770864 -1.3068462704529944 -0.4718692207830875 3.4010863568547647 0.2791716614118589 -0.43813021524585977 -1.2819025115324227 -1.684577602339988 -0.883432817668655 -0.6546806400834745 -0.7939603746335834 -1.4347571477891725 10.895252997990292 2.3479752285705384 0.15632474320907486 -0.5823684441019814 5.692788171986328 -0.5539190200672169 -15.496643530141144 0.46825176815891917 -1.819203325409855 1.3760571686523326 -12.806026681030483 70.51835826296147 5.783051381672934 14.387927701924022 -0.9017282702684076 8.69093972676228 83.38480101665392 21.273330218490376 -0.38349092840821425 -2.715325955489615 4.577929918414379 -0.15426809835133487 -1.6337600149424922 0.012796578413855376 -0.009010752476780117 -56.22906302644473 0.009564905845047702 -0.03633618530128568 -56.22719776270773 -38.81416331751389 0.016040431610912436 -0.03983527761586319 0.02016754949496758 0.022554424133405845 -0.009714817654145459 -0.013698729025081336 0.02479059968948077 0.0038548884161246225 -36.711220853055046 0.040088489868258394 0.035660801445816355 -0.0477762945956787 -0.03465199532580485 0.012899784113646399 -0.04050053827766121 0.029011057070051516 0.03911670667500052 -19.799658760249628 -0.012654594023449834 0.03912702937946616 0.037143476213084545 0.020602618567499925 0.009119223364148327 0.006117215828549742 -0.03352636176672712 0.027082340692499266 24.097256523663464 0.019989455602061567 0.011949695901694342 28.897201106496393 -0.011665348326148751 0.036621068336700265 28.86468542790328 -0.016861159525225936 0.010802844642558804 7.921004254160636 2.1101191921675677 11.179756254259708 -63.37102286034812 13.365788009771682 -36.661593317320325 11.944626585637222 -7.942956022288087 -70.3221124216636 -19.46555486675927 -0.09814076849835639 2.2003169464932832 -0.5074381789809499 0.09230336994756189 -8.16111290982832 -0.0018089497884405056 -0.010808167297970458 44.60666427802428 0.014569189723362089 -0.020098977928118485 44.526387422383685 12.41571062240852 -0.02061260233944678 -0.037806207538381695 0.021682936685605676 -0.0034207430989680668 0.027604759705587754 -0.0342013112140814 -0.011775008265338466 0.011421596198965656 11.080239762736692 0.025307351429432072 0.04363194147321096 -0.026094524199603234 0.040894280359985144 0.01101698042184073 0.045793149448420646 -0.042936784329750004 0.030015015486847124 4.744178336501883 0.013702735813359053 -0.02323957960499973 -0.012539540495342918 0.011505572645227188 0.04314329529420961 0.041279894618021576 -0.038232335368339386 0.028290613171835094 -5.590204178352 -0.02703632989815741 -0.021598186182418287 -6.757865602525369 0.009677130577227435 0.04102824882383788 -6.727227895064331 0.02936179499139844 0.024661209146321635 -0.04966498645486761 -0.021461970335226826 0.042375690476573344 8.037523057458282 3.5231595696422944 -19.179535918282525 0.023173400800755174 10.411972111562028 0.04477447604978471 -5.620876837932378 -15.675988843908119 3.2304822595191682 0.047356730018714197 0.006832660404657202 -0.031140140797146214 -0.014265750743771267 4.665654927049102 -0.006199776467148483 12.455329125629282 -8.206211828264085 6.886482244455045 -0.011426508291759145 46.369966287305 0.014051750220532998 -4.288103632730743 -14.750343146937935 -3.7950433920200104 0.036181129279701414 0.04539457594751986 0.004096029569716102 -0.04954563377682751 -10.710372059778479 -0.014469079987601005 
-0.002948385726579015 0.028828538012817602 0.044817282083725735 0.030382462812294005 -0.010668745756251588 -0.020766743914475968 -0.13123652599734903 3.2536596222815595 -1.2915874685623545 -0.4686260897669168 3.322759601046282 0.32049838136753883 -0.5157705249132429 -1.148150726773441 -1.7570344638509015 -0.7975553065116711 -0.5956216592772743 -0.772889125458697 -1.5157252706673858 10.727830295682644 2.4501854795881437 0.10056378379059414 -0.6563647528744087 5.997003055732481 -0.6625023788012526 -15.59829982773958 0.5551690930979588 -1.6981380221638438 1.4155681785243899 -12.749317594963548 70.7329947048211 5.024606225355264 13.9432696091326 -1.5074618520649683 8.570555137187453 82.54122444099167 20.659846015236806 -0.35976362831123954 -2.4136803527411246 4.540550464787699 -0.16115304739804975 -1.6045486059240843 -0.00932860945517061 -0.020942438778079973 -56.26087395342693 -0.03775151775997284 -0.04696434651122653 -56.226774598184186 -38.80327970882731 0.045453368466093144 0.0069322562307527385 -0.03320112613642135 0.03938469252738278 -0.03812266063134563 0.040265140465067226 -0.04728685099905363 0.026952473508627596 -36.674281218548 0.03340462513653034 -0.048094154628393504 0.04120082550199202 -0.0037177945233312568 0.03641787738597066 0.015204331958541071 0.03950063130623356 0.03688113535590388 -19.762901550010394 -0.008938356987728073 -0.00952394558986851 -0.02542876572161945 -0.03906992391759536 -0.02579940105795955 -0.02580826788025277 -0.007578705979420882 -0.04113023362515071 24.03061930519154 0.020416317671333076 -0.043937138754898526 28.821329150557055 -0.03681903876449842 -0.008757147539861834 28.857650738299167 -0.012862595294933 -0.03979060597756446 7.672019557684101 2.022008516510359 11.024416138709958 -63.40446985529668 14.112855996631689 -35.9627702616239 12.828262117914235 -8.626135083187872 -69.72368162417726 -18.49974926011419 -0.3002739110744021 2.581612669771718 -0.5173082984028449 0.07571011560967644 -8.075488731374975 -0.02571064592360784 0.023998871784225353 44.57180477991918 -0.03906380784040903 -0.03372939049738311 44.53078056266661 12.436763879765389 -0.021683427024388812 0.02607827803452678 0.02260408807084347 -0.0006154857214238298 -0.020706411446162032 0.009064319503889409 0.004125269985162119 -0.004811349755986259 11.115946499565876 0.011490066793186315 -0.04233837073855063 0.0257153497374858 0.04402578129037368 -0.048608878169442545 0.0388656855592368 -0.010799520735864121 0.022541524442213103 4.77998061684968 0.01577101959800183 -0.043872435760811776 0.01496769912525257 0.040795970750123034 -0.025239347241388543 -0.03258693441667012 -0.006403287181497722 0.03935414256071758 -5.551760966875388 -0.023546642445640496 -0.021001957397918335 -6.748186949528146 0.006283442873075098 0.03834983172290956 -6.691398793117786 0.043923607724239026 0.0017388561056956378 0.03888380177091599 0.04476254978482838 0.03451295390447774 8.066067206472704 3.4585491681460896 -19.22949853990548 0.027508296100585507 10.387109528456596 -0.025023555310716445 -5.596378502199728 -15.678169656187803 3.159580691000686 0.01845279789901012 0.011914087592463157 -0.011064269644650503 -0.0012502797528171504 4.741969503790885 0.04860857244160563 12.450941887054455 -8.253068405020963 6.8637264156811275 0.007761142259727629 46.41523844560112 0.01904695257365951 -4.295621560588987 -14.746857005143701 -3.8429376557431127 -0.019514658300389603 -0.004795315387471958 -0.02908637018265772 -0.015041386430653413 -10.70303941567557 -0.0006622437077041545 
0.017501803745688733 0.03150624306605333 -0.013042709264519779 -0.033585094984717206 0.009687991234807077 -0.010641967044514204 -0.2795185733039568 3.355374843323897 -1.2828982819895385 -0.5281050896612766 3.374908961261723 0.256597414383605 -0.5119209235151152 -1.1803430968173867 -1.778730670542991 -0.8691322279430285 -0.6261604571902984 -0.7742289778699302 -1.5787693094669988 10.51938400070473 2.552600906320441 0.07446136058065674 -0.758923786136266 6.309769419958337 -0.671652752217848 -15.802797156847246 0.546763327602303 -1.5771788284681922 1.3047494182747106 -12.725792770761748 70.72787517355077 3.980221947527403 13.497463883584821 -2.298485177569724 8.667609018619842 81.19329102001038 20.96464983824828 -0.39473713543693856 -2.0855593030216806 4.485668112702272 -0.10564682287391776 -1.5590492613312734 0.016485547564158997 0.034982642012595815 -56.226289065008345 -0.021008397269149423 0.02819666102133619 -56.27471233396252 -38.73116108943207 0.04075162873914642 0.0005678127813728953 0.03768678599735731 -0.029312018634036475 0.030478337016413018 -0.014111856854822453 0.011950858980154168 -0.0039565279450691675 -36.65447040270057 -0.037989350688344234 -0.03135126463540358 0.025140027265658164 0.007921514765633358 -0.01575380209933868 -0.018672419534161107 0.0035747593927514727 0.015306525579529525 -19.714763769267034 -0.0006344292876395347 0.002476295126979195 -0.0016345730295139332 0.030570572499453656 -0.00020166249529610453 0.010250034102102724 -0.010024408917079517 0.008930753732437286 24.044105834126345 0.0005652380948301337 0.02522721184290981 28.906222135074092 0.020949086925423518 0.03929997646309157 28.823393047676337 0.02358730377813567 0.024191183707324853 7.435141595206055 1.9490210137836865 10.906056180522654 -63.99331594588708 14.419197001401907 -35.231708789757995 11.620377699941546 -8.045962902394027 -68.14265263636896 -18.623055886878934 -0.2145465916852879 2.913435493564518 -0.4731332162070302 0.06900191681512836 -8.142160810966221 0.017740542594003348 -0.01072223917717201 44.556356597073055 -0.011817707313699738 -0.04167209837398705 44.56865455171443 12.507416313707102 -0.017161980223049347 0.04222984435183959 -0.03595893615529599 0.021199001879241914 -0.005183083672016086 0.021724491738299066 -0.0059213609087456 0.017550417948695368 11.080254251593436 -0.02699994987753681 0.04623416475435369 0.004636378264939574 0.0026585932776498713 -0.005306480782197796 -0.03689016823919948 -0.044651536842089175 0.03189086450729299 4.7748505928656275 -0.0007978784988697037 0.008673617222812883 0.010399551681159431 0.0067054620319131905 -0.04035450678941857 -0.015786043487236934 -0.0016685555658355407 0.04784855537655559 -5.646260684066191 0.01388153102171018 -0.048728539482472244 -6.684023666147045 -0.04067040472516387 0.04794232974230231 -6.7513674047479295 0.01691827828792866 0.008863079792058111 0.006285083614004631 -0.01314468629964304 0.040604867922506595 8.009038241782758 3.484210257029332 -19.24324344339354 0.009497531805448078 10.352507656018638 0.04962115486136877 -5.586987620672613 -15.685922446729693 3.1735616520254406 -0.017996099929711486 0.04671856384370324 -0.03911345528937786 -0.003747716090121392 4.665344813145016 0.038465621425761265 12.427513274866518 -8.199962628299597 6.857211366845249 0.04003487754985389 46.421327760605855 -0.012084960062455795 -4.301316499977584 -14.747984663054877 -3.8565012856906904 0.016399083770220733 0.03498689238364757 0.03437873708782729 0.03876093873224791 -10.746522856558588 0.04420929704126463 
0.03149126021152192 0.039793279718256525 -0.008643305235149794 -0.006761305286807001 0.02596781307141213 -0.01001797585603318 -0.29121662515402696 3.376832879783867 -1.3011054606331893 -0.4636824730717315 3.35808136990137 0.2518461346132174 -0.4911002748233862 -1.1973285743326167 -1.907373208999064 -0.9239911337178637 -0.6433860093636838 -0.765441628648349 -1.4869042839227924 10.460241377760811 2.6790550398157316 0.06520217030026201 -0.8629191829546435 6.62900396300671 -0.7249927993822323 -15.870703290746713 0.5346854307309379 -1.7935302258420225 1.355114333917199 -12.709612152741283 70.46829104380758 1.3637632942888467 13.770934661427539 -3.7109798744247984 8.565970834938636 79.38947669273396 21.2267503284112 -0.40164463890595137 -1.6615783644631157 4.539974887965269 -0.13031189235580126 -1.618253054549242 0.034763253102062026 0.031963118099008085 -56.21555934096816 0.008594743585276204 -0.03207445895026089 -56.27262174675658 -38.72104839327809 0.003468361831195024 -0.025818914622912036 0.012085708989447583 -0.04776332862001829 -0.04195911682878911 -0.04696407623762168 -0.016345073197576443 0.010485070739360641 -36.69797990241874 -0.009879684044571624 -0.022071853185500274 0.006594913202228839 -0.026442081245396296 0.01262579238546065 0.003322454769705278 0.006039087963438011 0.01130220586210795 -19.713196663088628 0.01472764827516953 -0.04583938968932002 0.016878517213123778 0.028081518655495945 -0.03473283536168282 0.034394724060109 0.03367118364069446 0.01548458257985211 24.03917811353626 -0.0011382384730983248 0.03896386259898982 28.829538017604484 -0.031148285801129324 -0.004530206648860105 28.843894950113732 0.048130384416184495 0.035243804636512666 7.488810073210881 1.9741633152098235 10.842576642704453 -64.482734852229 13.685144620685998 -35.080989121704704 10.26606524269988 -7.1587560467841715 -66.52786286635136 -18.804591022550085 0.046246366531365504 2.8379316982071336 -0.46883348887601345 0.035399913339043944 -8.102736023132731 0.03606376470287535 0.02542256346769344 44.5777914372353 0.002456290499020317 -0.03858132017300473 44.601538429685256 12.460092350119492 0.0019556966769007813 -0.006337782305427685 -0.03466493929816805 -0.008767366068478548 -0.03513376610030345 -0.023425835375284493 0.029139472034516653 0.005347334387881907 11.058500061242626 -0.003995485610923724 -0.013801519679875047 0.024348766094995932 -0.03426824978483866 0.0015811053768827912 -0.04566876553212801 0.015917948264346064 -0.022012300635468406 4.741445878576885 0.034074997559077405 0.04375069833824819 0.040843195737600785 -0.012912282631020358 0.00971095042631977 0.02045544577023194 0.014621961111783032 -0.020930805027670304 -5.612471642591292 -0.03924385524381773 -0.01398018335074885 -6.676673796837728 -0.02716540532757813 0.04575383913744957 -6.675755153081787 -0.01405970377835503 -0.024276789015209715 -0.027087804415562074 0.03060225425974233 0.01545314664698491 8.027100258060129 3.459083329566042 -19.199096867688166 -0.017915115832617665 10.401627850657096 -0.020727777811943755 -5.655210157317737 -15.612965075451049 3.1892770436241054 0.04848977227386265 -0.028262320450038902 -0.037275535658083565 -0.022008387446272287 4.738656535786431 -0.027030425789970426 12.47439125455514 -8.226425009256314 6.8495033642427465 -0.028317099630878105 46.36678057988934 0.024502324508931687 -4.335466939393994 -14.729668331803275 -3.8027022762569893 0.019763801489703466 0.006541215612657269 0.00913140980282189 -0.004206326274050924 -10.71319164852996 -0.029252244879251956 
